<svg xmlns="http://www.w3.org/2000/svg" viewBox="0 0 1033 367"><defs><style>.cls-1{fill:#456d6f}.cls-2{fill:#fff}.cls-3{fill:#3e6060}.cls-4{fill:#eee}</style></defs><title>Asset 13</title><g id="Layer_2" data-name="Layer 2"><g id="Layer_1-2" data-name="Layer 1"><path class="cls-1" d="M0 342L484 0h67l482 342H0z"/><path class="cls-2" d="M20 342L489 0 59 342H20zm955 0L546 0l465 342h-36zm-483 0l9-137h32l7 137h-48zm12-164h27l-6-76h-16l-5 76zm7-95h12l-3-43h-6l-3 43zm4-52h4l-1-23h-2l-1 23m0 10l1 1"/><path class="cls-3" d="M0 342v25h1033v-25H0z"/><path class="cls-4" d="M20 342h39v25H20zm472 0h48v25h-48zm483 0h36v25h-36z"/></g></g></svg>