<svg xmlns="http://www.w3.org/2000/svg" viewBox="0 0 1033 525"><defs><style>.cls-1{fill:#456d6f}.cls-2{fill:#fff}.cls-3{fill:#3e6060}.cls-4{fill:#eee}</style></defs><title>road-tall</title><g id="Layer_2" data-name="Layer 2"><g id="Layer_1-2" data-name="Layer 1"><path class="cls-1" d="M0 489.24L484 0h67l482 489.24H0z"/><path class="cls-2" d="M20 489.24L489 0 59 489.24H20zm955 0L546 0l465 489.24h-36zm-483 0l9-195.98h32l7 195.98h-48zm12-234.61h27l-6-108.72h-16l-5 108.72zm7-135.9h12l-3-61.51h-6l-3 61.51zm4-74.38h4l-1-32.91h-2l-1 32.91m0 14.3l1 1.43"/><path class="cls-3" d="M0 489.24V525h1033v-35.76H0z"/><path class="cls-4" d="M20 489.24h39V525H20zm472 0h48V525h-48zm483 0h36V525h-36z"/></g></g></svg>