<svg xmlns="http://www.w3.org/2000/svg" viewBox="0 0 1033 525"><defs><style>.cls-1{fill:#456d6f;}.cls-2{fill:#fff;}.cls-3{fill:#3e6060;}.cls-4{fill:#eee;}</style></defs><title>road-tall</title><g id="Layer_2" data-name="Layer 2"><g id="Layer_1-2" data-name="Layer 1"><polygon class="cls-1" points="0 489.24 484 0 551 0 1033 489.24 0 489.24"/><polygon class="cls-2" points="20 489.24 489 0 59 489.24 20 489.24"/><polygon class="cls-2" points="975 489.24 546 0 1011 489.24 975 489.24"/><polygon class="cls-2" points="492 489.24 501 293.26 533 293.26 540 489.24 492 489.24"/><polygon class="cls-2" points="504 254.63 531 254.63 525 145.91 509 145.91 504 254.63"/><polygon class="cls-2" points="511 118.73 523 118.73 520 57.22 514 57.22 511 118.73"/><polyline class="cls-2" points="515 44.35 519 44.35 518 11.44 516 11.44 515 44.35"/><line class="cls-2" x1="515" y1="58.65" x2="516" y2="60.08"/><polygon class="cls-3" points="0 489.24 0 525 1033 525 1033 489.24 20 489.24 0 489.24"/><rect class="cls-4" x="20" y="489.24" width="39" height="35.76"/><rect class="cls-4" x="492" y="489.24" width="48" height="35.76"/><rect class="cls-4" x="975" y="489.24" width="36" height="35.76"/></g></g></svg>